# File produced by Open Asset Import Library (http://www.assimp.sf.net)
# (assimp v5.0.1588609223)

mtllib result.mtl

# 265 vertex positions
v  0 2612.8484 0
v  278.15723 2513.3984 -856.08868
v  900.14563 2513.3984 0
v  1191.7874 2337.001 -865.8844
v  1731.7632 2222.6221 0
v  535.14392 2222.6221 -1647.0072
v  2035.2571 1934.547 -871.85004
v  2431.5615 1762.6483 0
v  1458.1024 1934.547 -1666.2261
v  751.39478 1762.6483 -2312.5542
v  2709.7185 1321.3734 -856.08868
v  2946.2534 1168.5026 0
v  2266.9124 1373.6539 -1647.0072
v  1651.5349 1321.3734 -2312.5542
v  910.44519 1168.5026 -2802.0566
v  -728.23022 2513.3984 -529.0943
v  -455.21991 2337.001 -1401.0282
v  -1401.0282 2222.6221 -1017.9093
v  -200.24811 1934.547 -2205.0583
v  -1134.099 1934.547 -1901.6326
v  -1967.1753 1762.6483 -1429.2346
v  23.159191 1321.3734 -2841.6433
v  -865.88428 1373.6539 -2664.9163
v  -1689.0128 1321.3734 -2285.3232
v  -2383.5691 1168.5026 -1731.7683
v  -728.23022 2513.3984 529.08911
v  -1473.1292 2337.001 0
v  -1401.0282 2222.6221 1017.9041
v  -2159.0127 1934.547 -490.95554
v  -2159.0127 1934.547 490.95047
v  -1967.1753 1762.6483 1429.2349
v  -2695.4055 1321.3734 -900.14563
v  -2802.0564 1373.6539 0
v  -2695.4055 1321.3734 900.1405
v  -2383.5691 1168.5026 1731.7634
v  278.15723 2513.3984 856.08344
v  -455.21991 2337.001 1401.0282
v  535.14392 2222.6221 1647.0071
v  -1134.0938 1934.547 1901.6328
v  -200.24811 1934.547 2205.0583
v  751.39478 1762.6483 2312.5488
v  -1689.0128 1321.3734 2285.3181
v  -865.88428 1373.6539 2664.9111
v  23.164474 1321.3734 2841.6382
v  910.44519 1168.5026 2802.0513
v  1191.7874 2337.001 865.87909
v  1458.1075 1934.547 1666.2261
v  2035.2571 1934.547 871.8446
v  1651.5349 1321.3734 2312.5488
v  2266.9124 1373.6539 1647.0071
v  2709.7185 1321.3734 856.08344
v  3159.791 607.36792 -529.0943
v  3159.791 607.36792 529.08911
v  3294.0144 0 0
v  3132.7915 0 1017.9041
v  3132.7915 0 -1017.9093
v  473.23206 607.36792 -3168.6377
v  1479.6249 607.36792 -2841.6433
v  1017.9041 0 -3132.7969
v  1936.1724 0 -2664.9163
v  0 0 -3294.0144
v  -2867.3159 607.36792 -1429.2346
v  -2245.3325 607.36792 -2285.3232
v  -2664.9111 0 -1936.1721
v  -1936.1721 0 -2664.9163
v  -3132.7917 0 -1017.9093
v  -2245.3325 607.36792 2285.3181
v  -2867.3159 607.36792 1429.2349
v  -2664.9111 0 1936.1722
v  -3132.7917 0 1017.9041
v  -1936.1721 0 2664.9111
v  1479.6249 607.36792 2841.6382
v  473.23206 607.36792 3168.6375
v  1017.9041 0 3132.7917
v  0 0 3294.0144
v  1936.1724 0 2664.9111
v  2257.3528 666.59845 -2246.9172
v  2664.9111 0 -1936.1721
v  2834.5027 666.59845 -1452.5408
v  -1439.3822 666.59845 -2841.2078
v  -1017.9041 0 -3132.7917
v  -505.53644 666.59845 -3144.6335
v  -3146.9419 666.59845 490.95047
v  -3294.0144 0 0
v  -3146.9419 666.59845 -490.95554
v  -505.53644 666.59845 3144.6338
v  -1017.9041 0 3132.7917
v  -1439.3822 666.59845 2841.2078
v  2834.5027 666.59845 1452.5356
v  2664.9111 0 1936.1722
v  2257.3528 666.59845 2246.9121
v  9.6135941 9.5340958 2519.4338
v  9.6135941 -9.5340958 2519.4338
v  -9.6135941 -9.5340881 2519.4338
v  -9.6135941 9.5340958 2519.4338
v  908.70239 755.42499 2225.1567
v  909.13586 737.29626 2231.0527
v  891.1825 739.03247 2237.7119
v  890.74902 757.16107 2231.8162
v  -865.09186 948.39349 2167.9243
v  -866.88538 930.7204 2174.856
v  -884.82495 929.84912 2167.9934
v  -883.03149 947.52197 2161.0618
v  -610.5097 1573.4583 1870.6248
v  -613.2467 1558.5406 1882.1821
v  -631.67499 1557.7202 1876.759
v  -628.93799 1572.6378 1865.2017
v  430.82831 2012.488 1453.2749
v  427.18811 2001.9878 1468.7699
v  408.58826 2006.718 1467.6062
v  412.22839 2017.2185 1452.1115
v  -1227.457 2052.1985 793.44818
v  -1233.4216 2042.6033 808.80914
v  -1249.0491 2036.8917 799.17365
v  -1243.0846 2046.4868 783.81287
v  1649.7449 1809.8931 591.91119
v  1655.2043 1799.8295 607.15955
v  1641.7271 1808.5515 617.74127
v  1636.2676 1818.6151 602.49292
v  538.20068 2449.7673 238.1376
v  546.53137 2446.2312 254.92148
v  529.72339 2448.9814 263.84387
v  521.3927 2452.5173 247.06021
v  1874.1802 1584.3784 -570.02039
v  1883.5259 1578.8479 -554.34637
v  1874.7942 1592.6904 -544.25543
v  1865.4487 1598.2211 -559.92926
v  1774.0388 1095.9442 -1414.0095
v  1787.1682 1084.4565 -1406.3124
v  1790.2412 1097.3199 -1392.3562
v  1777.1118 1108.8076 -1400.0533
v  1018.7497 2093.7598 -962.3147
v  1036.1084 2087.3296 -957.73932
v  1034.7212 2095.8196 -940.54407
v  1017.3628 2102.2495 -945.11914
v  908.59546 815.71289 -2203.814
v  925.17926 807.0675 -2200.0945
v  931.56372 823.02313 -2191.4724
v  914.98016 831.66858 -2195.1921
v  -387.34158 1298.8497 -2123.8376
v  -370.97562 1292.0632 -2130.8872
v  -361.53165 1307.0294 -2123.3699
v  -377.89761 1313.8159 -2116.3203
v  -711.276 2132.0645 -1138.4719
v  -696.25665 2130.7554 -1150.1471
v  -685.67749 2140.8601 -1137.6709
v  -700.69653 2142.1692 -1125.9958
v  -1425.407 712.28894 -1951.5605
v  -1410.9366 708.54858 -1963.4019
v  -1404.5981 726.58502 -1961.3536
v  -1419.0685 730.32532 -1949.5126
v  -2204.9951 1204.5049 -186.80127
v  -2211.0151 1191.3992 -199.27504
v  -2203.958 1201.9221 -213.737
v  -2197.938 1215.0278 -201.26323
v  -1279.9655 2160.6406 -202.61032
v  -1290.9517 2152.7856 -216.07141
v  -1278.6375 2158.7275 -229.58939
v  -1267.6511 2166.5825 -216.12848
v  -2042.0291 1084.5598 1000.7879
v  -2053.0706 1074.6783 988.78601
v  -2051.7595 1088.8776 975.88867
v  -2040.7183 1098.759 987.89038
v  -2017.7942 1252.4294 841.2229
v  -2028.5281 1243.8872 827.97852
v  -2024.7067 1258.1599 815.67542
v  -2013.9731 1266.7023 828.91968
v  -1856.4052 1677.6898 -294.69641
v  -1863.5632 1667.1669 -308.89624
v  -1852.7339 1676.8237 -321.51184
v  -1845.5759 1687.3467 -307.31226
v  -1250.2341 1806.1556 -1233.8743
v  -1253.9558 1793.8552 -1247.9617
v  -1237.6622 1799.0137 -1256.7704
v  -1233.9408 1811.314 -1242.6831
v  -1032.917 1868.9895 -1337.0452
v  -1036.5277 1856.7566 -1351.2198
v  -1019.3491 1860.6296 -1358.9386
v  -1015.7385 1872.8627 -1344.7643
v  356.099 2212.822 -1150.8004
v  360.47485 2203.646 -1166.9329
v  378.9776 2203.2979 -1161.7164
v  374.60193 2212.4736 -1145.5842
v  187.43188 2279.7332 -1056.1323
v  189.81879 2271.5544 -1073.1914
v  208.83472 2271.2173 -1070.3693
v  206.44788 2279.396 -1053.3105
v  1362.9844 1888.9385 960.16394
v  1375.9763 1886.4487 946.4303
v  1385.3623 1873.9099 957.58191
v  1372.3706 1876.3994 971.31555
v  2167.1985 724.49341 1061.1736
v  2176.5532 719.44946 1045.3416
v  2178.9385 701.72363 1052.3979
v  2169.584 706.76746 1068.2297
v  -314.46887 2401.5327 693.88696
v  -297.03857 2405.6338 687.33203
v  -289.59039 2401.5483 704.58057
v  -307.02057 2397.4475 711.13574
v  -1459.4431 1239.3303 1637.6249
v  -1444.6475 1250.406 1642.3179
v  -1439.6737 1237.9318 1656.0779
v  -1454.4692 1226.8563 1651.3853
v  -2471.0203 486.41779 72.01709
v  -2467.7126 501.11682 83.704712
v  -2469.4922 489.44891 98.882812
v  -2472.8 474.75003 87.195374
v  -1948.9596 1052.2695 -1200.8392
v  -1948.7192 1066.7275 -1188.4089
v  -1960.8456 1057.1168 -1176.9954
v  -1961.0862 1042.6589 -1189.4255
v  -603.48541 1306.5046 -2067.9893
v  -609.06451 1321.0963 -2057.0549
v  -626.84082 1313.7998 -2056.3877
v  -621.26196 1299.2085 -2067.3223
v  523.33771 2299.8284 -885.79706
v  512.09747 2307.4604 -872.4176
v  497.06183 2306.2109 -884.33606
v  508.30194 2298.5793 -897.71545
v  2406.7153 735.76672 118.73703
v  2409.8049 728.19342 101.51198
v  2414.4473 711.43402 109.71283
v  2411.3577 719.00714 126.93773
v  100.00002 1781.5087 1781.5087
v  95.105728 1759.6578 1803.3595
v  80.901764 1739.9459 1823.0714
v  58.778572 1724.3025 1838.7148
v  30.901726 1714.2588 1848.7585
v  1.1444092e-05 1710.798 1852.2194
v  -30.901703 1714.2588 1848.7585
v  -58.778538 1724.3024 1838.7147
v  -80.901718 1739.9459 1823.0714
v  -95.105667 1759.6578 1803.3595
v  -100.00002 1781.5087 1781.5087
v  -95.105667 1803.3595 1759.6578
v  -80.901703 1823.0714 1739.9459
v  -58.778526 1838.7148 1724.3025
v  -30.901695 1848.7585 1714.2588
v  8.4638596e-06 1852.2194 1710.798
v  30.901709 1848.7585 1714.2588
v  58.778538 1838.7148 1724.3025
v  80.901718 1823.0714 1739.9459
v  95.105667 1803.3595 1759.6578
v  -46.158588 1826.4324 -1736.585
v  -34.410259 1812.6539 -1750.3634
v  -17.83215 1824.3763 -1738.641
v  -24.26708 1834.3196 -1728.6978
v  -34.410301 1750.3634 -1812.6539
v  -46.158623 1736.585 -1826.4324
v  -24.267101 1728.6978 -1834.3196
v  -17.832182 1738.641 -1824.3763
v  -0.0001695859 1725.98 -1837.0374
v  3.0574667 1731.1146 -1831.9027
v  -0.00015753659 1837.0374 -1725.98
v  3.0574882 1831.9027 -1731.1146
v  -74.686066 1798.668 -1764.3494
v  -45.054062 1797.8827 -1765.1346
v  -63.531792 1814.1476 -1748.8698
v  -45.054108 1765.1346 -1797.8827
v  -63.53183 1748.8698 -1814.1476
v  -78.529572 1781.5087 -1781.5087
v  -48.721664 1781.5087 -1781.5087
v  -74.686111 1764.3494 -1798.668
v  22.542906 1728.6978 -1834.3196
v  22.542919 1834.3196 -1728.6978

# 1 UV coordinates
vt 0.50027806 0.99359572 0

# 218 vertex normals
vn 1.1505194e-07 -1 -2.7071044e-07
vn -0.064988144 -0.97763532 0.20001422
vn -0.2103073 -0.97763532 -2.9589572e-07
vn -0.30318958 -0.92712063 0.22028056
vn -0.43858069 -0.89869177 -3.1386875e-07
vn -0.13552886 -0.89869177 0.41711509
vn -0.54424077 -0.80549544 0.23447612
vn -0.66412395 -0.74762255 -3.4604616e-07
vn -0.39117905 -0.80549574 0.44514662
vn -0.20522527 -0.7476238 0.63161802
vn -0.77251929 -0.58954376 0.23590715
vn -0.84776855 -0.53036642 -3.2094243e-07
vn -0.64054883 -0.61082941 0.46538639
vn -0.4630833 -0.58954453 0.66180897
vn -0.26197439 -0.53036505 0.8062768
vn 0.17014168 -0.97763544 0.12361559
vn 0.11580766 -0.92712063 0.35642105
vn 0.35481963 -0.89869159 0.25779149
vn 0.054820322 -0.80549598 0.59006006
vn 0.3024787 -0.80549556 0.50959146
vn 0.53728724 -0.74762309 0.3903617
vn -0.014359857 -0.58954382 0.80760878
vn 0.24466842 -0.61082959 0.75301039
vn 0.48631826 -0.58954412 0.64492816
vn 0.68585914 -0.53036565 0.49830651
vn 0.17014173 -0.97763544 -0.12361538
vn 0.37476355 -0.92712039 -2.1588038e-07
vn 0.35481948 -0.89869177 -0.25779113
vn 0.57812142 -0.80549562 0.13020109
vn 0.57812148 -0.80549568 -0.13020083
vn 0.53728718 -0.74762273 -0.39036217
vn 0.76364356 -0.5895443 0.2632221
vn 0.79176158 -0.61083031 -2.412873e-07
vn 0.76364368 -0.58954442 -0.2632218
vn 0.68585885 -0.53036553 -0.49830729
vn -0.064988308 -0.9776355 -0.20001367
vn 0.11580806 -0.92712075 -0.35642025
vn -0.13552894 -0.89869177 -0.41711497
vn 0.30247879 -0.80549496 -0.50959229
vn 0.054819807 -0.80549467 -0.5900619
vn -0.20522571 -0.74762201 -0.63161981
vn 0.48631838 -0.58954424 -0.64492798
vn 0.24466811 -0.61083049 -0.75300968
vn -0.014361257 -0.58954519 -0.80760771
vn -0.26197556 -0.53036666 -0.80627549
vn -0.30318946 -0.92712086 -0.22027938
vn -0.39117935 -0.8054952 -0.44514728
vn -0.54424125 -0.8054955 -0.23447479
vn -0.4630827 -0.58954293 -0.66181082
vn -0.64055002 -0.61082804 -0.46538678
vn -0.77251959 -0.58954346 -0.23590696
vn -0.94220608 -0.29811838 0.15288305
vn -0.94220603 -0.29811844 -0.15288337
vn -0.99181193 -0.12770671 -2.6595558e-07
vn -0.94149226 -0.13276777 -0.30978236
vn -0.9414922 -0.13276701 0.30978286
vn -0.1457569 -0.29811794 0.94333476
vn -0.43655726 -0.29811829 0.84884816
vn -0.30648506 -0.12771012 0.94326937
vn -0.58555758 -0.13276988 0.79968393
vn 0.0036834041 -0.13276911 0.99114025
vn 0.85212308 -0.2981163 0.4301312
vn 0.6723994 -0.29811743 0.67749906
vn 0.80239344 -0.12770568 0.58297187
vn 0.57959831 -0.13276896 0.80401385
vn 0.94376785 -0.13276803 0.30277878
vn 0.67239898 -0.29811835 -0.67749906
vn 0.85212284 -0.29811716 -0.43013111
vn 0.80239248 -0.12770675 -0.58297288
vn 0.94376826 -0.13276704 -0.30277783
vn 0.57959968 -0.13276772 -0.80401301
vn -0.43655851 -0.29811835 -0.84884751
vn -0.1457597 -0.29811937 -0.94333398
vn -0.30648804 -0.12770769 -0.94326872
vn 0.0036815947 -0.13276786 -0.99114037
vn -0.58555657 -0.13277079 -0.79968458
vn -0.67093992 -0.32127762 0.66829658
vn -0.80090338 -0.14127125 0.58189011
vn -0.84291959 -0.32127714 0.43158722
vn 0.42825633 -0.32127735 0.84461671
vn 0.30591741 -0.14127013 0.9415186
vn 0.14998657 -0.32127649 0.93503237
vn 0.93561643 -0.32127771 -0.14629558
vn 0.98997056 -0.14127307 -2.6077666e-07
vn 0.93561643 -0.32127774 0.14629585
vn 0.14998606 -0.32127926 -0.93503147
vn 0.30591896 -0.14126886 -0.94151825
vn 0.42825821 -0.32127839 -0.84461528
vn -0.84291983 -0.32127738 -0.4315865
vn -0.80090278 -0.14127427 -0.58189017
vn -0.67093903 -0.32127795 -0.66829729
vn 0 0 -1
vn -0.35720414 -0.29658538 -0.88568741
vn -0.35720417 -0.29658535 -0.88568747
vn -0.35720417 -0.29658538 -0.88568747
vn -0.3572042 -0.29658541 -0.88568747
vn 0.34728694 -0.37274426 -0.86049604
vn 0.34728697 -0.37274426 -0.86049604
vn 0.34728694 -0.37274426 -0.86049598
vn 0.24652086 -0.62140441 -0.74369615
vn 0.24652086 -0.62140447 -0.74369621
vn -0.16659246 -0.79764092 -0.57966882
vn -0.16659245 -0.79764086 -0.57966876
vn -0.16659243 -0.79764086 -0.57966876
vn -0.16659248 -0.79764098 -0.57966882
vn 0.49147239 -0.81151158 -0.31607574
vn 0.49147236 -0.81151158 -0.31607571
vn 0.49147239 -0.81151158 -0.31607571
vn 0.49147236 -0.81151152 -0.31607574
vn -0.65321988 -0.71810377 -0.24006402
vn -0.65321994 -0.71810377 -0.24006401
vn -0.21195324 -0.97219127 -0.099599101
vn -0.21195321 -0.97219121 -0.099599093
vn -0.21195321 -0.97219127 -0.099599086
vn -0.21195324 -0.97219127 -0.099599093
vn -0.74401236 -0.63051027 0.22113886
vn -0.74401242 -0.63051027 0.22113886
vn -0.74401236 -0.63051027 0.22113888
vn -0.70735544 -0.43527356 0.55694276
vn -0.70735538 -0.43527353 0.55694276
vn -0.40752542 -0.83145094 0.37764072
vn -0.40752542 -0.83145094 0.37764069
vn -0.40752539 -0.83145088 0.37764069
vn -0.36518592 -0.32522061 0.87227905
vn -0.36518598 -0.32522061 0.87227905
vn -0.36518592 -0.32522058 0.87227911
vn -0.36518592 -0.32522061 0.87227899
vn 0.14861004 -0.5171591 0.84288883
vn 0.27723435 -0.84799391 0.45171615
vn 0.27723438 -0.84799397 0.4517161
vn 0.27723435 -0.84799385 0.45171613
vn 0.27723435 -0.84799391 0.45171613
vn 0.56163561 -0.28556043 0.77654415
vn 0.56163561 -0.28556043 0.77654409
vn 0.87499088 -0.47756982 0.079485759
vn 0.87499088 -0.47756982 0.079485752
vn 0.50778818 -0.85720074 0.085780285
vn 0.50778812 -0.85720074 0.085780278
vn 0.50778806 -0.85720074 0.08578027
vn 0.507788 -0.85720062 0.085780263
vn 0.81243831 -0.43133461 -0.39229393
vn 0.81243819 -0.43133464 -0.3922939
vn 0.81243825 -0.43133461 -0.3922939
vn 0.81243825 -0.43133464 -0.3922939
vn 0.80225974 -0.49824494 -0.32883325
vn 0.80225974 -0.49824494 -0.32883328
vn 0.80225968 -0.49824497 -0.32883331
vn 0.80225968 -0.49824488 -0.32883328
vn 0.73610687 -0.66572815 0.12228127
vn 0.73610693 -0.66572821 0.12228129
vn 0.73610675 -0.66572809 0.12228125
vn 0.49374005 -0.71547884 0.49427813
vn 0.49374005 -0.71547878 0.49427807
vn 0.49374002 -0.71547872 0.4942781
vn 0.49374008 -0.71547884 0.49427816
vn 0.40728989 -0.74017274 0.53503215
vn 0.40728989 -0.74017262 0.53503209
vn 0.40728986 -0.74017268 0.53503209
vn 0.40728989 -0.74017262 0.53503215
vn -0.14587688 -0.87641436 0.45893124
vn -0.14587688 -0.8764143 0.45893127
vn -0.14587688 -0.87641436 0.4589313
vn -0.14587688 -0.87641436 0.45893127
vn -0.07863985 -0.90317088 0.42201674
vn -0.078639872 -0.90317088 0.42201674
vn -0.078639865 -0.90317094 0.42201677
vn -0.078639857 -0.90317076 0.42201674
vn -0.54542398 -0.74676424 -0.3805992
vn -0.54542398 -0.7467643 -0.38059926
vn -0.54542392 -0.74676424 -0.3805992
vn -0.54542404 -0.7467643 -0.38059926
vn -0.86251545 -0.28305161 -0.41946259
vn -0.86251545 -0.28305161 -0.41946256
vn -0.86251545 -0.28305158 -0.41946253
vn 0.11989397 -0.95320523 -0.27753422
vn 0.11989398 -0.95320517 -0.27753422
vn 0.11989396 -0.95320517 -0.27753422
vn 0.5753504 -0.49163845 -0.65365392
vn 0.57535034 -0.49163845 -0.65365392
vn 0.5753504 -0.49163848 -0.65365392
vn 0.5753504 -0.49163851 -0.65365392
vn 0.98048085 -0.19366738 -0.033917032
vn 0.98048085 -0.19366737 -0.033917028
vn 0.98048085 -0.19366735 -0.033917028
vn 0.98048085 -0.19366738 -0.033917028
vn 0.77593154 -0.41862008 0.47189784
vn 0.77593154 -0.41862008 0.47189781
vn 0.77593148 -0.41862005 0.47189778
vn 0.77593154 -0.41862005 0.47189778
vn 0.24415943 -0.52002066 0.81851369
vn 0.24415943 -0.52002066 0.81851375
vn 0.24415942 -0.52002066 0.81851369
vn -0.20250827 -0.91410303 0.35129213
vn -0.20250827 -0.91410303 0.35129216
vn -0.20250826 -0.91410285 0.3512921
vn -0.95679587 -0.28720382 -0.045339733
vn -0.95679581 -0.28720385 -0.045339741
vn -0.95679587 -0.28720388 -0.045339741
vn -0.95679587 -0.28720385 -0.045339733
vn -2.5281767e-07 -0.70710665 -0.70710689
vn -2.528177e-07 -0.70710665 -0.70710689
vn -2.528177e-07 -0.70710659 -0.70710683
vn 4.4146127e-06 -0.70710671 0.70710671
vn 4.4146127e-06 -0.70710677 0.70710677
vn 4.4146132e-06 -0.70710677 0.70710677
vn 6.1817239e-08 -0.70710677 0.70710677
vn 6.1817232e-08 -0.70710671 0.70710671
vn -1.0611866e-05 -0.70710671 0.70710671
vn -1.0611866e-05 -0.70710677 0.70710677
vn 2.1264244e-05 -0.70710671 0.70710671
vn 2.1264246e-05 -0.70710677 0.70710677
vn -2.1285561e-05 -0.70710671 0.70710671
vn -2.1285563e-05 -0.70710671 0.70710671
vn 6.7194969e-06 -0.70710677 0.70710677
vn 6.7194965e-06 -0.70710677 0.70710677
vn 1.2915969e-05 -0.70710677 0.70710677
vn 1.291597e-05 -0.70710677 0.70710677
vn 1.2915971e-05 -0.70710677 0.70710677

# Mesh 'Skydome' with 160 faces
g Skydome
usemtl blinn1
f  1//1 2//2 3//3
f  3//3 4//4 5//5
f  3//3 2//2 4//4
f  2//2 6//6 4//4
f  5//5 7//7 8//8
f  5//5 4//4 7//7
f  4//4 9//9 7//7
f  4//4 6//6 9//9
f  6//6 10//10 9//9
f  8//8 11//11 12//12
f  8//8 7//7 11//11
f  7//7 13//13 11//11
f  7//7 9//9 13//13
f  9//9 14//14 13//13
f  9//9 10//10 14//14
f  10//10 15//15 14//14
f  1//1 16//16 2//2
f  2//2 17//17 6//6
f  2//2 16//16 17//17
f  16//16 18//18 17//17
f  6//6 19//19 10//10
f  6//6 17//17 19//19
f  17//17 20//20 19//19
f  17//17 18//18 20//20
f  18//18 21//21 20//20
f  10//10 22//22 15//15
f  10//10 19//19 22//22
f  19//19 23//23 22//22
f  19//19 20//20 23//23
f  20//20 24//24 23//23
f  20//20 21//21 24//24
f  21//21 25//25 24//24
f  1//1 26//26 16//16
f  16//16 27//27 18//18
f  16//16 26//26 27//27
f  26//26 28//28 27//27
f  18//18 29//29 21//21
f  18//18 27//27 29//29
f  27//27 30//30 29//29
f  27//27 28//28 30//30
f  28//28 31//31 30//30
f  21//21 32//32 25//25
f  21//21 29//29 32//32
f  29//29 33//33 32//32
f  29//29 30//30 33//33
f  30//30 34//34 33//33
f  30//30 31//31 34//34
f  31//31 35//35 34//34
f  1//1 36//36 26//26
f  26//26 37//37 28//28
f  26//26 36//36 37//37
f  36//36 38//38 37//37
f  28//28 39//39 31//31
f  28//28 37//37 39//39
f  37//37 40//40 39//39
f  37//37 38//38 40//40
f  38//38 41//41 40//40
f  31//31 42//42 35//35
f  31//31 39//39 42//42
f  39//39 43//43 42//42
f  39//39 40//40 43//43
f  40//40 44//44 43//43
f  40//40 41//41 44//44
f  41//41 45//45 44//44
f  1//1 3//3 36//36
f  36//36 46//46 38//38
f  36//36 3//3 46//46
f  3//3 5//5 46//46
f  38//38 47//47 41//41
f  38//38 46//46 47//47
f  46//46 48//48 47//47
f  46//46 5//5 48//48
f  5//5 8//8 48//48
f  41//41 49//49 45//45
f  41//41 47//47 49//49
f  47//47 50//50 49//49
f  47//47 48//48 50//50
f  48//48 51//51 50//50
f  48//48 8//8 51//51
f  8//8 12//12 51//51
f  12//12 52//52 53//53
f  53//53 54//54 55//55
f  53//53 52//52 54//54
f  52//52 56//56 54//54
f  15//15 57//57 58//58
f  58//58 59//59 60//60
f  58//58 57//57 59//59
f  57//57 61//61 59//59
f  25//25 62//62 63//63
f  63//63 64//64 65//65
f  63//63 62//62 64//64
f  62//62 66//66 64//64
f  35//35 67//67 68//68
f  68//68 69//69 70//70
f  68//68 67//67 69//69
f  67//67 71//71 69//69
f  45//45 72//72 73//73
f  73//73 74//74 75//75
f  73//73 72//72 74//74
f  72//72 76//76 74//74
f  60//60 77//77 58//58
f  60//60 78//78 77//77
f  78//78 79//79 77//77
f  78//78 56//56 79//79
f  56//56 52//52 79//79
f  58//58 14//14 15//15
f  58//58 77//77 14//14
f  77//77 13//13 14//14
f  77//77 79//79 13//13
f  79//79 11//11 13//13
f  79//79 52//52 11//11
f  52//52 12//12 11//11
f  65//65 80//80 63//63
f  65//65 81//81 80//80
f  81//81 82//82 80//80
f  81//81 61//61 82//82
f  61//61 57//57 82//82
f  63//63 24//24 25//25
f  63//63 80//80 24//24
f  80//80 23//23 24//24
f  80//80 82//82 23//23
f  82//82 22//22 23//23
f  82//82 57//57 22//22
f  57//57 15//15 22//22
f  70//70 83//83 68//68
f  70//70 84//84 83//83
f  84//84 85//85 83//83
f  84//84 66//66 85//85
f  66//66 62//62 85//85
f  68//68 34//34 35//35
f  68//68 83//83 34//34
f  83//83 33//33 34//34
f  83//83 85//85 33//33
f  85//85 32//32 33//33
f  85//85 62//62 32//32
f  62//62 25//25 32//32
f  75//75 86//86 73//73
f  75//75 87//87 86//86
f  87//87 88//88 86//86
f  87//87 71//71 88//88
f  71//71 67//67 88//88
f  73//73 44//44 45//45
f  73//73 86//86 44//44
f  86//86 43//43 44//44
f  86//86 88//88 43//43
f  88//88 42//42 43//43
f  88//88 67//67 42//42
f  67//67 35//35 42//42
f  55//55 89//89 53//53
f  55//55 90//90 89//89
f  90//90 91//91 89//89
f  90//90 76//76 91//91
f  76//76 72//72 91//91
f  53//53 51//51 12//12
f  53//53 89//89 51//51
f  89//89 50//50 51//51
f  89//89 91//91 50//50
f  91//91 49//49 50//50
f  91//91 72//72 49//49
f  72//72 45//45 49//49

# Mesh 'Stars' with 33 faces
g Stars
usemtl blinn1
f  92/1/92 93/1/92 94/1/92 95/1/92
f  96/1/93 97/1/94 98/1/95 99/1/96
f  100/1/97 101/1/98 102/1/98 103/1/99
f  104/1/100 105/1/101 106/1/100 107/1/101
f  108/1/102 109/1/103 110/1/104 111/1/105
f  112/1/106 113/1/107 114/1/108 115/1/109
f  116/1/110 117/1/111 118/1/110 119/1/111
f  120/1/112 121/1/113 122/1/114 123/1/115
f  124/1/116 125/1/117 126/1/118 127/1/118
f  128/1/119 129/1/120 130/1/119 131/1/120
f  132/1/121 133/1/122 134/1/121 135/1/123
f  136/1/124 137/1/125 138/1/126 139/1/127
f  140/1/128 141/1/128 142/1/128 143/1/128
f  144/1/129 145/1/130 146/1/131 147/1/132
f  148/1/133 149/1/134 150/1/134 151/1/134
f  152/1/135 153/1/136 154/1/135 155/1/136
f  156/1/137 157/1/138 158/1/139 159/1/140
f  160/1/141 161/1/142 162/1/143 163/1/144
f  164/1/145 165/1/146 166/1/147 167/1/148
f  168/1/149 169/1/150 170/1/151 171/1/149
f  172/1/152 173/1/153 174/1/154 175/1/155
f  176/1/156 177/1/157 178/1/158 179/1/159
f  180/1/160 181/1/161 182/1/162 183/1/163
f  184/1/164 185/1/165 186/1/166 187/1/167
f  188/1/168 189/1/169 190/1/170 191/1/171
f  192/1/172 193/1/173 194/1/174 195/1/172
f  196/1/175 197/1/176 198/1/176 199/1/177
f  200/1/178 201/1/179 202/1/180 203/1/181
f  204/1/182 205/1/183 206/1/184 207/1/185
f  208/1/186 209/1/187 210/1/188 211/1/189
f  212/1/190 213/1/191 214/1/190 215/1/192
f  216/1/193 217/1/194 218/1/194 219/1/195
f  220/1/196 221/1/197 222/1/198 223/1/199

# Mesh 'Sun' with 1 faces
g Sun
usemtl blinn1
f  224/1/200 225/1/200 226/1/201 227/1/201 228/1/201 229/1/202 230/1/201 231/1/201 232/1/201 233/1/201 234/1/201 235/1/201 236/1/201 237/1/201 238/1/201 239/1/201 240/1/201 241/1/201 242/1/201 243/1/201

# Mesh 'Moon' with 14 faces
g Moon
usemtl blinn1
f  244//203 245//204 246//205 247//203
f  248//206 249//206 250//206 251//206
f  251//207 252//206 253//206
f  247//208 246//208 254//209
f  254//210 246//211 255//211
f  251//212 250//212 252//213
f  256//207 257//206 258//206
f  258//214 257//215 245//215 244//215
f  259//207 260//206 249//206 248//206
f  261//206 262//206 257//206 256//206
f  259//206 263//206 260//206
f  261//206 263//206 259//206 262//206
f  253//216 252//217 264//218
f  254//206 255//206 265//206

